<?xml version="1.0" encoding="UTF-8"?> <svg xmlns="http://www.w3.org/2000/svg" width="56" height="46" viewBox="0 0 56 46" fill="none"><g clip-path="url(#clip0_224_309047)"><g filter="url(#filter0_i_224_309047)"><path fill-rule="evenodd" clip-rule="evenodd" d="M14.6562 25.5937H0V0H25.5938V29.8692C25.5938 38.3425 18.6998 45.2364 10.2266 45.2364H4.59375V34.2989H10.2266C12.6689 34.2989 14.6562 32.3116 14.6562 29.8692V25.5937ZM22.3125 3.28125H3.28125V22.3125H17.9375V29.8692C17.9375 34.1217 14.4791 37.5802 10.2266 37.5802H7.875V41.9552H10.2266C16.8908 41.9552 22.3125 36.5334 22.3125 29.8692V3.28125ZM30.4062 25.5937V0H56V29.8692C56 38.3425 49.1061 45.2364 40.6328 45.2364H35V34.2989H40.6328C43.0752 34.2989 45.0625 32.3116 45.0625 29.8692V25.5937H30.4062ZM40.6328 41.9552C47.297 41.9552 52.7188 36.5334 52.7188 29.8692V3.28125H33.6875V22.3125H48.3438V29.8692C48.3438 34.1217 44.8853 37.5802 40.6328 37.5802H38.2812V41.9552H40.6328Z" fill="url(#paint0_linear_224_309047)"></path></g></g><defs><filter id="filter0_i_224_309047" x="0" y="0" width="58" height="47.2363" color-interpolation-filters="sRGB"><feFlood flood-opacity="0" result="BackgroundImageFix"></feFlood><feBlend mode="normal" in="SourceGraphic" in2="BackgroundImageFix" result="shape"></feBlend><feColorMatrix in="SourceAlpha" type="matrix" values="0 0 0 0 0 0 0 0 0 0 0 0 0 0 0 0 0 0 127 0" result="hardAlpha"></feColorMatrix><feOffset dx="2" dy="2"></feOffset><feGaussianBlur stdDeviation="2"></feGaussianBlur><feComposite in2="hardAlpha" operator="arithmetic" k2="-1" k3="1"></feComposite><feColorMatrix type="matrix" values="0 0 0 0 0.0901961 0 0 0 0 0.168627 0 0 0 0 0.392157 0 0 0 0.64 0"></feColorMatrix><feBlend mode="normal" in2="shape" result="effect1_innerShadow_224_309047"></feBlend></filter><linearGradient id="paint0_linear_224_309047" x1="28" y1="0" x2="28" y2="45.2364" gradientUnits="userSpaceOnUse"><stop stop-color="#0046AD"></stop><stop offset="1" stop-color="#0046AD" stop-opacity="0.64"></stop></linearGradient><clipPath id="clip0_224_309047"><rect width="56" height="45.2364" fill="white"></rect></clipPath></defs></svg> 