<?xml version="1.0" encoding="UTF-8"?> <svg xmlns="http://www.w3.org/2000/svg" id="Layer_1" data-name="Layer 1" version="1.1" viewBox="0 0 275 29"><defs><style> .cls-1 { fill: #fff; stroke-width: 0px; } </style></defs><path class="cls-1" d="M160.7,18.4v10.4h-1.8v-10.4h-3.4v-1.7h8.7v1.7h-3.4Z"></path><path class="cls-1" d="M231.4,18.4v10.4h-1.8v-10.4h-3.4v-1.7h8.7v1.7h-3.4Z"></path><path class="cls-1" d="M166.5,28.8v-12.1h2.5c1.2,0,2.2.1,2.9.4.8.2,1.5.6,2.1,1.2,1.2,1.1,1.9,2.6,1.9,4.5s-.6,3.4-2,4.5c-.7.6-1.3,1-2.1,1.2-.7.2-1.6.3-2.8.3h-2.5ZM168.3,27.1h.8c.8,0,1.5,0,2.1-.3.6-.2,1.1-.5,1.5-.9.9-.8,1.4-1.9,1.4-3.2s-.4-2.4-1.3-3.2c-.8-.7-2-1.1-3.5-1.1h-.8v8.7Z"></path><path class="cls-1" d="M180,21.5l4.7-4.8h2.4l-5.5,5.5,5.5,6.6h-2.4l-4.4-5.4-.4.4v5h-1.8v-12.1h1.8v4.8h0Z"></path><path class="cls-1" d="M212.2,18.4h-4.9v2.9h4.7v1.7h-4.7v4.1h4.9v1.7h-6.7v-12.1h6.7v1.7h0Z"></path><path class="cls-1" d="M214.6,28.8v-12.1l7.4,7.7v-7.7h1.8v12.1l-7.4-7.7v7.7h-1.8Z"></path><path class="cls-1" d="M238.9,16.7v7.3c0,1,.2,1.8.5,2.3.5.7,1.2,1,2.1,1s1.6-.3,2.1-1c.3-.5.5-1.2.5-2.3v-7.3h1.8v7.8c0,1.3-.4,2.3-1.2,3.2-.9.9-2,1.4-3.3,1.4s-2.4-.5-3.3-1.4c-.8-.8-1.2-1.9-1.2-3.2v-7.8h1.8Z"></path><path class="cls-1" d="M252.6,23.6l3.8,5.2h-2.2l-3.5-5h-.3v5h-1.8v-12.1h2.1c1.6,0,2.8.3,3.5.9.8.7,1.2,1.6,1.2,2.7s-.2,1.6-.7,2.2c-.5.6-1.1,1-1.9,1.2h0ZM250.3,22.2h.6c1.7,0,2.6-.7,2.6-2s-.8-1.9-2.5-1.9h-.6v3.8Z"></path><path class="cls-1" d="M265,18.4h-4.9v2.9h4.7v1.7h-4.7v4.1h4.9v1.7h-6.7v-12.1h6.7v1.7h0Z"></path><path class="cls-1" d="M274.7,18.5l-1.5.9c-.3-.5-.5-.8-.8-.9-.3-.2-.6-.3-1-.3s-.9.1-1.3.4c-.3.3-.5.6-.5,1.1s.4,1.1,1.3,1.4l1.2.5c1,.4,1.7.9,2.2,1.5.5.6.7,1.3.7,2.1,0,1.1-.4,2-1.1,2.8-.7.7-1.7,1.1-2.8,1.1s-1.9-.3-2.6-.9c-.7-.6-1.1-1.5-1.3-2.6l1.9-.4c0,.7.2,1.2.4,1.5.4.5.9.8,1.6.8s1-.2,1.4-.6c.4-.4.6-.9.6-1.5s0-.4,0-.6c0-.2-.2-.4-.3-.5-.2-.2-.3-.3-.5-.5-.3-.2-.5-.3-.8-.4l-1.2-.5c-1.7-.7-2.5-1.7-2.5-3.1s.3-1.7,1-2.3c.7-.6,1.6-.9,2.6-.9s2.5.7,3.3,2h0Z"></path><path class="cls-1" d="M201.3,16.7l-3,7.5-3-7.5h-2l4.9,12.1,5.1-12.1h-2Z"></path><path class="cls-1" d="M120.4,14c.2,0,.5.2.7.4l17.3,14.7h-11l-16.4-15L125.9,0h10.4l-15.3,13.6c-.2.2-.4.3-.7.4h0Z"></path><path class="cls-1" d="M67,0h18.8C95.2,0,101.3,6.3,101.3,14.5s-7.4,14.5-15.3,14.5h-19V0h0ZM74.4,22.9h11.1c6.1,0,8.5-3.6,8.5-8.4s-1.9-8.5-9-8.5h-10.6v16.9h0Z"></path><path class="cls-1" d="M33.5,18.4l-10.6-6.1V0l10.6,18.4ZM0,18.4l10.6-6.1V0L0,18.4ZM16.8,22.9l-10.6,6.1h21.3l-10.6-6.1ZM22.9,0h-12.3l6.1,6.1L22.9,0ZM22.9,12.3l-6.1,10.6,8.4-2.2-2.2-8.4ZM10.6,12.3h12.3l-6.1-6.1-6.1,6.1ZM25.1,20.6l2.3,8.4,6.1-10.6-8.4,2.2h0ZM10.6,12.3l6.1,10.6-8.4-2.2,2.3-8.4h0ZM8.4,20.6l-2.2,8.4L0,18.4l8.4,2.2Z"></path><path class="cls-1" d="M65.3,0H31.2v6.2h13.2v22.9h7.8V6.2h13.1V0h0Z"></path><path class="cls-1" d="M110.8,29V0h-7.8v29h7.8Z"></path></svg> 